<?xml version="1.0" standalone="no"?>
<!DOCTYPE svg PUBLIC "-//W3C//DTD SVG 20010904//EN"
 "http://www.w3.org/TR/2001/REC-SVG-20010904/DTD/svg10.dtd">
<svg version="1.0" xmlns="http://www.w3.org/2000/svg"
 width="600.000000pt" height="600.000000pt" viewBox="0 0 600.000000 600.000000"
 preserveAspectRatio="xMidYMid meet">
<metadata>
Created by potrace 1.14, written by Peter Selinger 2001-2017
</metadata>
<g transform="translate(0.000000,600.000000) scale(0.100000,-0.100000)"
fill="#000000" stroke="none">
<path d="M1710 5850 c0 -5 5 -10 11 -10 5 0 7 5 4 10 -3 6 -8 10 -11 10 -2 0
-4 -4 -4 -10z"/>
<path d="M1300 5791 c0 -5 5 -13 10 -16 6 -3 10 -2 10 4 0 5 -4 13 -10 16 -5
3 -10 2 -10 -4z"/>
<path d="M1105 5709 c-4 -6 -5 -12 -2 -15 2 -3 7 2 10 11 7 17 1 20 -8 4z"/>
<path d="M5420 5690 c0 -5 5 -10 10 -10 6 0 10 5 10 10 0 6 -4 10 -10 10 -5 0
-10 -4 -10 -10z"/>
<path d="M4940 5681 c0 -6 5 -13 10 -16 6 -3 10 1 10 9 0 9 -4 16 -10 16 -5 0
-10 -4 -10 -9z"/>
<path d="M1692 5511 c2 -22 6 -28 20 -26 45 9 48 46 4 52 -24 3 -26 1 -24 -26z
m28 9 c0 -5 0 -12 0 -15 0 -14 -13 -8 -16 8 -1 9 2 17 7 17 5 0 9 -4 9 -10z"/>
<path d="M5335 5520 c-3 -5 -1 -10 4 -10 6 0 11 5 11 10 0 6 -2 10 -4 10 -3 0
-8 -4 -11 -10z"/>
<path d="M4880 5500 c0 -5 5 -10 11 -10 5 0 7 5 4 10 -3 6 -8 10 -11 10 -2 0
-4 -4 -4 -10z"/>
<path d="M1384 5449 c-10 -17 13 -36 27 -22 12 12 4 33 -11 33 -5 0 -12 -5
-16 -11z m26 -9 c0 -5 -5 -10 -11 -10 -5 0 -7 5 -4 10 3 6 8 10 11 10 2 0 4
-4 4 -10z"/>
<path d="M2845 5350 c-8 -13 3 -30 18 -29 9 0 9 2 0 6 -7 2 -13 9 -13 14 0 6
5 7 12 3 7 -4 8 -3 4 4 -9 15 -13 15 -21 2z"/>
<path d="M3137 5343 c-3 -5 -2 -15 2 -22 7 -10 10 -10 16 -1 4 6 3 16 -3 22
-5 5 -12 6 -15 1z"/>
<path d="M4200 5300 c-13 -8 -12 -10 3 -10 9 0 17 5 17 10 0 12 -1 12 -20 0z"/>
<path d="M5195 5281 c-3 -5 -1 -12 5 -16 5 -3 10 1 10 9 0 18 -6 21 -15 7z"/>
<path d="M4951 5271 c-12 -8 -12 -12 -2 -25 7 -9 17 -13 23 -10 5 3 4 13 -4
22 -11 13 -10 15 5 9 11 -4 16 -3 12 3 -8 12 -16 12 -34 1z"/>
<path d="M2366 5241 c-12 -18 19 -38 49 -31 l30 6 -32 17 c-37 20 -40 20 -47
8z m44 -16 c0 -11 -29 -11 -33 -1 -4 10 1 12 14 9 10 -3 19 -7 19 -8z"/>
<path d="M2670 5170 c0 -4 -11 -6 -25 -5 -14 2 -25 -1 -25 -7 0 -6 -6 -5 -15
2 -8 7 -15 8 -15 3 0 -5 -8 -9 -17 -9 -10 -1 -33 -3 -50 -7 -19 -3 -33 -1 -33
5 0 5 -8 2 -17 -8 -11 -11 -18 -13 -21 -5 -2 6 -9 8 -15 4 -11 -7 -46 -11
-124 -16 -13 0 -23 -5 -23 -9 0 -5 -8 -4 -19 1 -10 6 -21 8 -23 5 -3 -3 -18
-7 -34 -10 -16 -3 -49 -14 -74 -26 -25 -12 -49 -22 -55 -23 -5 0 -27 -8 -49
-18 -21 -9 -42 -17 -47 -17 -5 0 -9 -4 -9 -10 0 -5 -9 -10 -20 -10 -11 0 -20
-5 -20 -11 0 -5 -4 -8 -9 -4 -5 3 -16 -2 -24 -10 -9 -8 -21 -15 -27 -15 -6 0
-13 -7 -16 -15 -4 -8 -12 -15 -19 -15 -7 0 -16 -7 -19 -16 -3 -8 -10 -13 -15
-10 -5 3 -12 -1 -15 -10 -4 -9 -9 -14 -12 -11 -7 7 -64 -50 -64 -63 0 -6 -8
-10 -17 -10 -15 0 -16 -2 -3 -10 11 -7 11 -10 2 -10 -16 0 -90 -78 -98 -103
-3 -9 -10 -14 -16 -11 -7 5 -9 1 -5 -9 4 -11 1 -17 -9 -17 -8 0 -12 -4 -9 -10
3 -5 1 -10 -5 -10 -6 0 -8 -4 -5 -10 3 -5 -1 -10 -9 -10 -9 0 -16 -7 -16 -15
0 -8 -9 -19 -20 -25 -11 -6 -20 -8 -20 -4 0 3 -6 1 -13 -5 -8 -6 -17 -8 -20
-4 -4 3 -7 1 -7 -6 0 -7 -4 -10 -9 -7 -5 3 -12 -1 -15 -10 -4 -9 -9 -15 -11
-12 -6 5 -105 -91 -105 -101 0 -3 -9 -12 -20 -19 -12 -7 -18 -17 -15 -22 3 -6
2 -10 -4 -10 -5 0 -13 -10 -17 -22 -3 -12 -12 -28 -20 -35 -7 -7 -11 -27 -9
-45 3 -17 -2 -44 -9 -59 -12 -24 -12 -32 0 -55 8 -15 12 -35 8 -43 -4 -9 -6
-19 -6 -23 1 -5 -3 -8 -9 -8 -6 0 -9 -6 -6 -14 3 -7 0 -19 -6 -25 -8 -8 -8
-11 0 -11 12 0 12 -18 0 -37 -5 -7 -4 -13 1 -13 10 0 10 -39 0 -55 -4 -6 -3
-17 2 -25 5 -8 5 -22 -1 -32 -5 -10 -6 -18 -1 -18 5 0 9 -7 9 -15 0 -8 -3 -15
-7 -15 -3 0 -6 -9 -6 -20 0 -11 4 -20 7 -20 4 0 4 -13 -1 -29 -4 -16 -6 -32
-3 -35 4 -3 7 -20 8 -38 7 -95 10 -114 20 -120 6 -5 5 -8 -4 -8 -9 0 -10 -4
-3 -12 5 -7 12 -31 15 -53 3 -22 10 -62 17 -90 6 -27 14 -63 16 -80 2 -16 6
-41 9 -55 6 -32 65 -153 79 -162 6 -4 8 -8 4 -8 -4 0 -4 -11 1 -23 5 -13 5
-30 1 -37 -5 -8 -5 -19 1 -26 12 -15 -55 -89 -71 -79 -5 3 -10 2 -10 -4 0 -6
-12 -14 -27 -17 -16 -4 -40 -16 -55 -26 -16 -11 -28 -16 -28 -13 0 4 -7 -1
-16 -9 -8 -9 -20 -14 -25 -11 -5 4 -9 1 -9 -4 0 -6 -10 -11 -23 -11 -13 0 -27
-3 -31 -7 -4 -5 -12 -9 -17 -9 -5 -1 -10 -2 -11 -4 -2 -1 -10 -3 -18 -5 -8 -2
-28 -9 -45 -16 -16 -7 -33 -12 -37 -11 -5 1 -8 -2 -8 -7 0 -5 -35 -26 -77 -47
-43 -21 -79 -41 -81 -46 -2 -4 -8 -8 -14 -8 -6 0 -17 -8 -25 -17 -8 -10 -11
-11 -7 -3 5 8 -24 -17 -63 -57 -39 -39 -74 -69 -77 -66 -3 4 -6 0 -6 -8 0 -8
-29 -40 -63 -71 -129 -120 -143 -134 -169 -168 -14 -19 -46 -57 -71 -84 -26
-27 -51 -62 -58 -78 -6 -15 -15 -28 -19 -28 -12 0 -107 -153 -107 -172 0 -23
-43 -108 -55 -108 -5 0 -6 -4 -3 -10 3 -5 3 -16 -2 -22 -4 -7 -8 -20 -10 -28
-1 -8 -7 -16 -12 -18 -7 -2 -11 -284 -11 -873 l0 -869 1205 0 c802 0 1204 3
1200 10 -3 6 -2 10 4 10 6 0 13 11 17 25 3 14 10 22 15 19 8 -4 14 25 10 49 0
4 3 7 7 7 4 0 16 22 27 50 11 27 23 50 27 50 4 0 7 3 6 8 -1 4 5 21 12 37 7
17 15 41 17 54 2 13 17 40 33 59 16 20 27 39 24 44 -3 4 0 8 6 8 7 0 10 6 7
14 -3 8 -2 16 4 18 5 2 11 12 13 23 2 11 10 34 16 50 7 17 14 41 16 55 7 46
27 100 37 100 5 0 7 6 4 14 -3 8 -3 17 1 20 5 6 8 20 14 64 1 6 8 12 17 12 13
0 13 2 2 9 -9 6 -10 10 -2 12 7 3 14 18 16 34 2 17 4 30 5 30 1 0 4 11 6 24 2
14 12 33 21 43 9 10 13 18 10 18 -3 0 5 27 19 60 14 34 22 65 19 70 -3 4 0 10
5 12 6 2 12 13 13 26 0 12 5 22 9 22 4 0 5 7 2 15 -4 8 -1 15 6 15 6 0 9 4 5
9 -3 6 6 21 21 34 l26 24 29 -28 c16 -16 29 -33 29 -38 0 -6 6 -14 13 -18 6
-4 19 -21 27 -37 15 -30 42 -64 92 -119 15 -16 25 -34 21 -40 -3 -5 -1 -7 5
-3 6 3 13 -3 17 -14 3 -11 11 -20 16 -20 5 0 9 -7 9 -15 0 -8 5 -15 12 -15 6
0 9 -3 5 -6 -5 -5 8 -24 38 -58 6 -6 16 -25 23 -42 7 -16 25 -43 40 -59 15
-16 42 -47 61 -70 18 -22 35 -39 37 -37 2 1 12 -6 22 -15 10 -10 30 -27 45
-38 15 -11 27 -25 27 -32 0 -7 3 -12 8 -12 20 3 32 -2 32 -16 0 -8 4 -15 10
-15 5 0 20 -11 33 -24 14 -14 28 -22 31 -19 3 4 6 1 6 -6 0 -7 5 -9 10 -6 6 3
10 2 10 -4 0 -6 11 -13 25 -17 14 -3 25 -10 25 -14 0 -4 8 -10 18 -13 9 -4 34
-13 54 -20 21 -8 35 -10 32 -5 -4 6 2 6 13 -1 30 -15 91 -20 102 -7 5 6 28 10
50 10 23 -1 41 2 41 7 0 5 3 8 8 7 14 -3 92 25 92 34 0 4 7 8 15 8 9 0 18 7
21 15 4 8 9 13 13 11 3 -2 25 16 49 40 24 24 40 44 37 44 -4 0 9 17 29 37 20
21 39 48 42 61 4 12 10 22 16 22 5 0 6 5 3 10 -3 6 -2 10 4 10 5 0 8 9 6 20
-2 11 0 18 6 15 8 -6 13 8 10 28 0 4 4 7 9 7 6 0 10 7 10 15 0 8 4 15 8 15 5
0 14 16 22 35 7 19 19 36 27 39 7 3 13 17 13 31 0 14 5 25 11 25 5 0 7 5 4 10
-4 6 -1 17 5 25 7 8 9 15 4 15 -4 0 3 11 16 25 13 14 20 25 16 25 -3 0 7 13
24 30 26 26 53 36 83 31 4 0 7 5 7 12 0 8 4 7 10 -3 5 -8 10 -10 10 -5 0 6 17
11 38 12 58 3 121 17 182 40 8 4 18 5 23 5 4 -1 7 2 7 7 0 5 9 13 21 16 11 4
18 9 15 13 -3 3 12 17 34 32 22 15 37 30 33 35 -5 4 -1 6 8 3 10 -4 19 4 28
23 7 16 17 27 22 23 5 -3 9 0 9 5 0 20 4 26 38 58 19 18 31 33 27 33 -4 0 0
11 9 25 12 18 13 25 4 25 -9 0 -10 2 -2 8 7 4 11 16 10 27 -3 32 -27 95 -37
95 -5 0 -9 7 -9 16 0 8 -5 12 -10 9 -6 -4 -9 -3 -8 2 1 4 -4 24 -11 43 -8 19
-15 42 -17 50 -12 60 -30 103 -54 129 -14 17 -30 28 -33 24 -4 -3 -7 1 -7 10
0 9 -4 17 -10 17 -17 0 -32 42 -35 99 -1 30 -8 57 -14 59 -6 2 -11 10 -11 18
0 9 -4 13 -9 10 -5 -3 -11 1 -15 9 -3 8 -12 12 -21 9 -8 -3 -15 -2 -15 3 0 5
-6 10 -12 10 -45 1 -88 37 -87 72 0 24 17 75 18 58 1 -4 12 2 26 15 13 13 30
28 37 33 58 45 94 70 100 70 9 0 46 44 70 85 22 36 36 51 108 110 24 19 55 46
69 60 15 14 30 26 34 28 11 4 79 72 72 72 -3 0 1 7 10 16 9 10 12 20 7 23 -5
3 -8 14 -6 24 1 9 -2 17 -7 17 -6 0 -8 4 -4 9 3 5 -1 16 -9 24 -8 8 -13 17
-11 21 3 3 2 4 -1 1 -4 -2 -20 3 -36 11 -23 12 -28 12 -22 2 6 -10 4 -10 -9 1
-13 10 -20 11 -31 2 -10 -9 -16 -9 -21 -1 -5 8 -11 8 -21 -1 -8 -6 -14 -8 -14
-3 0 5 -4 4 -8 -3 -4 -6 -14 -13 -22 -15 -8 -2 -21 -9 -28 -16 -8 -7 -18 -10
-23 -7 -5 4 -9 -1 -9 -9 0 -9 -7 -16 -15 -16 -8 0 -15 -4 -15 -10 0 -5 -4 -10
-10 -10 -5 0 -23 -13 -38 -30 -16 -16 -34 -30 -41 -30 -6 0 -11 -4 -11 -9 0
-5 -17 -19 -37 -31 -21 -12 -42 -28 -46 -36 -5 -8 -12 -12 -18 -9 -5 4 -12 -1
-15 -9 -3 -9 -10 -16 -15 -16 -11 0 -99 -84 -99 -94 0 -10 -39 -46 -50 -46 -6
0 -9 -4 -8 -8 2 -4 -26 -36 -61 -70 -58 -56 -75 -68 -84 -59 -1 1 -13 -8 -27
-21 -13 -12 -30 -20 -37 -18 -7 3 -13 1 -13 -4 0 -6 -9 -10 -20 -10 -12 0 -32
-11 -46 -25 -14 -14 -22 -25 -19 -25 4 0 0 -7 -7 -15 -30 -33 -37 -43 -32 -48
3 -3 -4 -8 -15 -12 -12 -3 -19 -10 -16 -15 3 -5 -15 -22 -40 -38 -25 -15 -42
-31 -39 -35 4 -4 0 -7 -9 -7 -8 0 -17 -4 -19 -8 -6 -16 -69 -54 -93 -57 -14
-1 -34 -14 -46 -29 -11 -14 -24 -24 -29 -21 -10 6 -22 -71 -25 -170 -1 -44 -4
-84 -5 -90 -1 -5 -1 -12 0 -15 1 -3 3 -23 4 -45 2 -40 23 -95 36 -95 9 0 33
-50 36 -72 1 -10 -3 -18 -8 -18 -6 0 -8 -7 -4 -15 3 -8 2 -15 -3 -15 -4 0 -13
-11 -19 -25 -6 -14 -19 -25 -27 -25 -23 0 -65 30 -65 47 0 8 -3 12 -7 10 -5
-2 -16 4 -25 15 -10 10 -15 18 -10 18 4 0 -7 8 -25 16 -18 9 -31 20 -30 24 1
4 -11 19 -26 34 -15 14 -25 26 -21 26 3 0 0 7 -7 17 -8 9 -13 18 -11 20 7 10
-1 32 -19 52 -14 15 -22 37 -23 62 -1 21 -8 46 -16 56 -8 10 -26 33 -38 51
-13 17 -50 59 -83 92 -32 33 -59 64 -59 70 0 5 -3 10 -8 10 -14 0 -40 73 -48
136 -2 21 -9 43 -14 48 -6 6 -10 21 -10 34 0 14 -10 41 -22 61 -13 20 -23 43
-23 51 0 8 -3 20 -6 25 -3 6 -5 17 -4 25 0 8 -5 21 -12 28 -7 7 -13 20 -13 28
0 8 -5 14 -10 14 -6 0 -9 3 -8 8 1 4 -4 20 -11 36 -6 16 -13 38 -16 50 -2 11
-4 22 -6 24 -1 1 -2 5 -3 10 -1 4 -8 18 -15 31 -11 19 -11 22 1 16 10 -6 10
-5 1 5 -8 8 -9 20 -3 36 5 13 7 24 4 24 -4 0 -2 6 4 13 6 6 11 17 13 22 9 38
12 44 20 40 4 -3 6 4 4 15 -2 11 -1 20 3 20 8 0 32 53 38 84 3 11 9 26 16 33
6 7 8 16 5 20 -4 3 -2 12 4 20 6 7 8 13 4 13 -4 0 -2 7 5 15 7 8 10 15 7 15
-3 0 3 25 14 56 11 30 16 60 13 66 -4 6 -3 8 4 4 6 -3 12 3 14 15 2 12 12 27
23 33 10 6 25 17 33 24 7 6 18 12 23 12 6 0 8 4 4 9 -3 6 2 14 11 19 9 5 16
11 15 13 -2 15 13 48 20 43 5 -3 9 0 9 6 0 6 11 26 24 43 14 18 25 34 25 37 0
6 9 34 27 82 7 20 16 47 18 60 3 13 8 34 11 48 23 90 40 312 27 335 -4 6 -7
19 -8 30 -3 39 -14 93 -24 121 -6 16 -11 29 -10 29 1 0 -4 14 -11 30 -7 17
-13 32 -13 35 -2 9 -40 64 -53 78 -15 16 -15 15 -18 75 -2 26 1 47 5 47 5 0 7
8 5 18 -1 9 3 23 9 31 9 12 8 13 -4 6 -13 -8 -13 -6 -1 8 7 9 11 24 7 32 -3 8
0 15 7 15 7 0 8 3 2 8 -5 4 -11 21 -13 37 -2 34 -10 87 -13 95 0 3 -1 12 0 22
1 9 -3 19 -9 23 -7 4 -7 12 1 27 8 14 8 23 0 31 -6 6 -11 21 -11 32 0 12 -3
25 -7 29 -4 4 -9 19 -11 34 -2 15 -7 29 -13 30 -5 2 -9 11 -9 19 0 25 -42 92
-62 99 -10 3 -18 10 -18 15 0 6 -4 7 -10 4 -5 -3 -10 1 -10 9 0 9 -9 16 -20
16 -11 0 -20 4 -20 10 0 5 -11 12 -25 16 -14 3 -25 10 -25 16 0 5 -5 6 -11 3
-5 -4 -19 1 -31 12 -11 10 -23 17 -27 17 -14 -3 -31 9 -31 23 0 8 -6 13 -12
11 -7 -3 -18 0 -25 6 -33 29 -41 34 -47 29 -3 -4 -6 0 -6 8 0 11 -2 11 -10 -1
-5 -8 -10 -10 -10 -4 0 14 -63 31 -102 29 -16 -1 -28 2 -28 8 0 5 -9 7 -20 4
-11 -3 -17 -1 -14 4 3 5 -3 12 -13 16 -10 4 -21 11 -25 17 -5 7 -8 6 -8 -3 0
-10 -3 -11 -13 -3 -15 12 -157 23 -157 12z m618 -2065 c4 -3 14 -57 14 -70 -3
-47 -14 -100 -23 -111 -8 -10 -8 -14 0 -14 7 0 8 -8 1 -25 -5 -14 -6 -25 -2
-25 4 0 2 -4 -3 -8 -18 -12 -79 -144 -79 -169 0 -21 -8 -27 -28 -24 -5 0 -8
-6 -8 -14 0 -23 -26 -18 -56 10 -15 14 -24 25 -20 25 4 0 2 9 -4 19 -7 14 -7
22 1 26 6 4 8 13 5 20 -3 8 0 15 5 17 5 2 11 13 12 25 0 12 4 20 8 17 3 -2 9
14 13 37 3 22 10 38 14 35 4 -2 9 9 10 26 2 17 11 51 22 76 11 24 20 51 20 58
0 8 5 14 10 14 6 0 10 5 10 10 0 6 7 22 16 36 12 18 22 23 38 18 11 -4 22 -8
24 -9z"/>
<path d="M3266 5167 c3 -10 9 -15 12 -12 3 3 0 11 -7 18 -10 9 -11 8 -5 -6z"/>
<path d="M1056 5085 c-3 -9 0 -15 9 -15 16 0 20 16 6 24 -5 3 -11 -1 -15 -9z"/>
<path d="M1250 4990 c0 -5 5 -10 10 -10 6 0 10 5 10 10 0 6 -4 10 -10 10 -5 0
-10 -4 -10 -10z"/>
<path d="M1325 4963 c-5 -10 -7 -21 -7 -25 1 -5 -4 -8 -10 -8 -9 0 -8 -3 2
-10 16 -10 36 12 26 28 -3 5 1 9 9 9 10 0 11 -5 4 -18 -13 -25 -11 -32 5 -17
15 14 16 32 2 35 -5 1 -12 7 -16 13 -5 8 -10 6 -15 -7z"/>
<path d="M4600 4906 c0 -2 6 -9 14 -15 10 -9 15 -8 20 4 4 10 -1 15 -14 15
-11 0 -20 -2 -20 -4z"/>
<path d="M3700 4656 c0 -8 5 -18 10 -21 6 -3 10 1 10 9 0 8 -4 18 -10 21 -5 3
-10 -1 -10 -9z"/>
<path d="M1264 4642 c3 -5 0 -13 -6 -15 -8 -3 -6 -6 5 -6 19 -1 23 14 5 25 -6
4 -8 3 -4 -4z"/>
<path d="M920 4490 c-8 -5 -10 -10 -5 -10 6 0 17 5 25 10 8 5 11 10 5 10 -5 0
-17 -5 -25 -10z"/>
<path d="M5250 4195 c-11 -13 -10 -14 4 -9 9 3 16 10 16 15 0 13 -6 11 -20 -6z"/>
<path d="M5104 4131 c4 -6 1 -11 -6 -11 -8 0 -5 -5 5 -11 13 -8 22 -8 29 -1 7
7 3 14 -12 22 -15 8 -20 8 -16 1z"/>
<path d="M5206 4131 c-4 -5 -2 -12 3 -15 5 -4 12 -2 15 3 4 5 2 12 -3 15 -5 4
-12 2 -15 -3z"/>
<path d="M5175 4110 c-3 -5 1 -10 10 -10 9 0 13 5 10 10 -3 6 -8 10 -10 10 -2
0 -7 -4 -10 -10z"/>
<path d="M5320 4045 c-10 -12 -9 -15 8 -15 11 0 22 7 26 15 3 9 0 15 -8 15 -7
0 -19 -7 -26 -15z"/>
<path d="M5201 3661 c-10 -6 -10 -10 -1 -16 13 -8 24 -1 19 14 -3 6 -10 7 -18
2z"/>
<path d="M4711 3436 c-9 -11 -8 -18 5 -31 15 -15 18 -15 26 -2 9 16 1 47 -12
47 -4 0 -13 -6 -19 -14z m23 -17 c-3 -5 -10 -7 -15 -3 -5 3 -7 10 -3 15 3 5
10 7 15 3 5 -3 7 -10 3 -15z"/>
<path d="M5213 3355 c-8 -9 -9 -16 -3 -20 6 -4 8 -11 5 -16 -4 -5 -1 -9 4 -9
6 0 11 5 11 11 0 8 6 7 17 -2 11 -10 14 -10 9 -1 -4 6 -3 12 2 12 5 0 9 6 9
14 0 12 -4 12 -24 -1 -14 -10 -23 -11 -23 -4 0 6 7 11 16 11 8 0 12 5 9 10 -8
13 -18 12 -32 -5z"/>
<path d="M375 3260 c-3 -5 -1 -10 4 -10 6 0 11 5 11 10 0 6 -2 10 -4 10 -3 0
-8 -4 -11 -10z"/>
<path d="M4955 3260 c3 -5 8 -10 11 -10 2 0 4 5 4 10 0 6 -5 10 -11 10 -5 0
-7 -4 -4 -10z"/>
<path d="M4523 3245 c0 -8 4 -15 9 -15 4 0 8 4 8 9 0 6 -4 12 -8 15 -5 3 -9
-1 -9 -9z"/>
<path d="M4923 3235 c0 -8 6 -15 13 -15 8 0 11 6 8 15 -4 8 -9 15 -13 15 -4 0
-8 -7 -8 -15z"/>
<path d="M256 2954 c-7 -18 11 -38 38 -42 17 -3 18 -1 7 12 -7 8 -18 14 -24
13 -7 -1 -11 6 -9 16 4 21 -4 22 -12 1z"/>
<path d="M276 2954 c-3 -8 -2 -12 3 -9 5 3 12 1 16 -5 8 -13 25 -13 25 1 0 5
-4 7 -10 4 -5 -3 -10 1 -10 9 0 21 -16 21 -24 0z"/>
<path d="M4056 2842 c-3 -6 -1 -14 5 -17 15 -10 25 3 12 16 -7 7 -13 7 -17 1z"/>
<path d="M853 2815 c-3 -9 -3 -19 1 -22 3 -4 6 -1 6 5 0 7 5 12 11 12 5 0 7
-5 3 -12 -4 -7 -3 -8 5 -4 9 6 9 11 0 22 -15 18 -18 18 -26 -1z"/>
<path d="M3813 1989 c1 -19 17 -27 17 -9 0 6 7 10 15 10 8 0 15 4 15 9 0 5
-11 9 -24 9 -18 0 -24 -6 -23 -19z"/>
<path d="M3585 1851 c-3 -5 -1 -12 4 -15 5 -3 11 1 15 9 6 16 -9 21 -19 6z"/>
<path d="M3835 1770 c-3 -5 1 -10 10 -10 9 0 13 5 10 10 -3 6 -8 10 -10 10 -2
0 -7 -4 -10 -10z"/>
<path d="M3760 1668 c-6 -21 -5 -34 5 -41 6 -5 4 -7 -5 -4 -8 2 -14 10 -12 16
1 6 -2 11 -8 11 -17 0 -11 -27 7 -34 23 -9 31 4 22 34 -4 14 -8 22 -9 18z"/>
<path d="M5845 1271 c3 -6 -3 -14 -12 -20 -10 -5 -16 -12 -13 -15 3 -2 16 3
29 13 20 16 21 19 7 24 -10 4 -14 3 -11 -2z"/>
<path d="M2880 689 c0 -5 5 -7 10 -4 6 3 10 8 10 11 0 2 -4 4 -10 4 -5 0 -10
-5 -10 -11z"/>
<path d="M3395 160 c3 -5 11 -10 16 -10 6 0 7 5 4 10 -3 6 -11 10 -16 10 -6 0
-7 -4 -4 -10z"/>
</g>
</svg>
